<?xml version="1.0" encoding="UTF-8" standalone="no"?>
<!-- Created with Inkscape (http://www.inkscape.org/) -->

<svg
   xmlns:dc="http://purl.org/dc/elements/1.1/"
   xmlns:cc="http://creativecommons.org/ns#"
   xmlns:rdf="http://www.w3.org/1999/02/22-rdf-syntax-ns#"
   xmlns:svg="http://www.w3.org/2000/svg"
   xmlns="http://www.w3.org/2000/svg"
   xmlns:sodipodi="http://sodipodi.sourceforge.net/DTD/sodipodi-0.dtd"
   xmlns:inkscape="http://www.inkscape.org/namespaces/inkscape"
   width="641.14001"
   height="150.76428"
   id="svg2"
   sodipodi:version="0.32"
   inkscape:version="0.48.2 r9819"
   version="1.0"
   sodipodi:docname="piece-workLogo.svg"
   inkscape:output_extension="org.inkscape.output.svg.inkscape">
  <title
     id="title3075">Piece-Work</title>
  <defs
     id="defs4">
    <inkscape:perspective
       sodipodi:type="inkscape:persp3d"
       inkscape:vp_x="0 : 526.18109 : 1"
       inkscape:vp_y="0 : 1000 : 0"
       inkscape:vp_z="744.09448 : 526.18109 : 1"
       inkscape:persp3d-origin="372.04724 : 350.78739 : 1"
       id="perspective10" />
  </defs>
  <sodipodi:namedview
     id="base"
     pagecolor="#ffffff"
     bordercolor="#666666"
     borderopacity="1.0"
     gridtolerance="10000"
     guidetolerance="10"
     objecttolerance="10"
     inkscape:pageopacity="0.0"
     inkscape:pageshadow="2"
     inkscape:zoom="1"
     inkscape:cx="137.48057"
     inkscape:cy="81.735718"
     inkscape:document-units="px"
     inkscape:current-layer="layer1"
     showgrid="false"
     inkscape:window-width="1283"
     inkscape:window-height="745"
     inkscape:window-x="75"
     inkscape:window-y="-8"
     inkscape:window-maximized="1" />
  <metadata
     id="metadata7">
    <rdf:RDF>
      <cc:Work
         rdf:about="">
        <dc:format>image/svg+xml</dc:format>
        <dc:type
           rdf:resource="http://purl.org/dc/dcmitype/StillImage" />
        <dc:title>Piece-Work</dc:title>
        <dc:creator>
          <cc:Agent>
            <dc:title>Lani Aung</dc:title>
          </cc:Agent>
        </dc:creator>
        <dc:language>English</dc:language>
        <cc:license
           rdf:resource="" />
      </cc:Work>
    </rdf:RDF>
  </metadata>
  <g
     inkscape:label="Layer 1"
     inkscape:groupmode="layer"
     id="layer1"
     transform="translate(-36.068919,-154.11347)">
    <flowRoot
       xml:space="preserve"
       id="flowRoot2499"
       style="font-size:144px;font-style:normal;font-variant:normal;font-weight:normal;font-stretch:normal;text-align:start;line-height:125%;writing-mode:lr-tb;text-anchor:start;fill:#000000;fill-opacity:1;stroke:none;font-family:Georgia;-inkscape-font-specification:Georgia"><flowRegion
         id="flowRegion2501"><rect
           id="rect2503"
           width="274.39188"
           height="150.58316"
           x="271.26062"
           y="30.018621"
           style="font-size:144px;font-style:normal;font-variant:normal;font-weight:normal;font-stretch:normal;text-align:start;line-height:125%;writing-mode:lr-tb;text-anchor:start;font-family:Georgia;-inkscape-font-specification:Georgia" /></flowRegion><flowPara
         id="flowPara2505">~~``12~``3rfg~~~~~~~~~</flowPara></flowRoot>    <flowRoot
       xml:space="preserve"
       id="flowRoot2507"
       style="font-size:40px;font-style:normal;font-weight:normal;fill:#000000;fill-opacity:1;stroke:none;font-family:Bitstream Vera Sans"><flowRegion
         id="flowRegion2509"><rect
           id="rect2511"
           width="276.68762"
           height="124.31365"
           x="249.3013"
           y="46.431087" /></flowRegion><flowPara
         id="flowPara2513" /></flowRoot>    <g
       id="g2555">
      <g
         transform="translate(26,0)"
         id="g2519">
        <path
           style="font-size:144px;font-style:normal;font-variant:normal;font-weight:normal;font-stretch:normal;text-align:center;line-height:125%;writing-mode:lr-tb;text-anchor:middle;fill:#000000;fill-opacity:1;stroke:none;font-family:Georgia;-inkscape-font-specification:Georgia"
           d="m 464.02279,212.04963 c -1.96886,0.18757 -4.08995,1.00788 -6.36328,2.46094 -2.27354,1.45319 -3.92588,3.63287 -4.95704,6.53906 -2.34384,6.89068 -4.55868,13.41801 -6.64453,19.58203 -2.08602,6.1641 -4.41805,13.08987 -6.99609,20.77735 -0.84383,2.43751 -1.6993,5.06251 -2.56641,7.875 -0.86726,2.8125 -1.65242,5.50781 -2.35547,8.08594 l -6.04687,0 -18.63281,-51.04688 -18.77344,51.04688 -5.76562,0 c -3.51566,-10.40624 -6.94925,-20.73045 -10.30079,-30.97266 -3.35157,-10.24215 -6.31642,-19.16011 -8.89453,-26.75391 -0.75001,-2.20306 -2.17969,-3.93744 -4.28906,-5.20312 -2.10938,-1.26556 -4.14844,-2.01556 -6.11719,-2.25 l 0,-4.64063 30.9375,0 0,4.92188 c -1.5469,0.0469 -3.22268,0.30475 -5.02734,0.77344 -1.80471,0.46881 -2.70706,1.24225 -2.70703,2.32031 -3e-5,0.18756 0.082,0.586 0.24609,1.19531 0.16404,0.60944 0.36326,1.26568 0.59766,1.96875 1.49997,4.92193 3.19919,10.41802 5.09765,16.48828 1.89841,6.07035 4.34763,13.95706 7.34766,23.66016 l 17.71875,-49.92188 6.75,0 18.07031,49.21875 c 2.01555,-6.28122 4.01945,-12.36325 6.01172,-18.24609 1.9921,-5.88277 3.73819,-11.4023 5.23828,-16.55859 0.32804,-1.2187 0.64444,-2.33198 0.94922,-3.33985 0.3046,-1.00775 0.45694,-2.00385 0.45703,-2.98828 -9e-5,-0.84369 -0.37509,-1.59369 -1.125,-2.25 -0.75009,-0.65619 -1.66415,-1.19525 -2.74219,-1.61719 -0.93758,-0.37493 -1.95711,-0.65618 -3.05859,-0.84375 -1.10164,-0.18743 -1.91024,-0.28118 -2.42578,-0.28125 l 0,-4.5 26.36719,0 0,4.5 z"
           id="path2466"
           inkscape:connector-curvature="0" />
        <path
           style="font-size:144px;font-style:normal;font-variant:normal;font-weight:normal;font-stretch:normal;text-align:center;line-height:125%;writing-mode:lr-tb;text-anchor:middle;fill:#000000;fill-opacity:1;stroke:none;font-family:Georgia;-inkscape-font-specification:Georgia"
           d="m 456.0625,241.90625 c 7e-5,10.21878 3.42194,18.47656 10.3125,24.78125 6.89068,6.30469 15.76567,9.46873 26.59375,9.46875 5.62502,0 10.69535,-0.91408 15.21875,-2.71875 4.52345,-1.80468 8.35937,-4.20314 11.5,-7.25 3.1875,-3.09374 5.6172,-6.64063 7.28125,-10.625 1.66406,-3.98435 2.50001,-8.18749 2.5,-12.59375 0,-5.29683 -0.92189,-10.0781 -2.75,-14.34375 -1.82813,-4.26557 -4.62499,-8.01558 -8.375,-11.25 -3.28124,-2.85931 -7.28905,-5.04683 -12,-6.59375 -4.71091,-1.5468 -9.49997,-2.34369 -14.375,-2.34375 -10.87495,8e-5 -19.58589,3.16411 -26.125,9.46875 -6.539,6.30475 -9.78119,14.29691 -9.78125,24 z m 5.34375,0.15625 c 7e-5,-3.51558 0.86724,-6.49997 2.625,-8.9375 1.75788,-2.43745 4.09381,-4.40622 7,-5.90625 2.7188,-1.40619 6.0235,-2.45309 9.9375,-3.15625 3.91411,-0.70307 7.64066,-1.06246 11.15625,-1.0625 9.9844,6e-5 17.7969,1.70316 23.46875,5.125 5.67188,3.42193 8.53127,8.07815 8.53125,13.9375 10e-6,3.56253 -0.8828,6.5547 -2.59375,8.96875 -1.71093,2.41409 -4.06248,4.40626 -7.0625,6 -2.99998,1.59377 -6.39843,2.74219 -10.21875,3.46875 -3.82028,0.72658 -7.96873,1.09375 -12.46875,1.09375 -3.42183,2e-5 -6.96871,-0.29688 -10.625,-0.90625 -3.6562,-0.60935 -6.92182,-1.65625 -9.78125,-3.15625 -3.09369,-1.59373 -5.53119,-3.66405 -7.3125,-6.21875 -1.78119,-2.55465 -2.65619,-5.64061 -2.65625,-9.25 z"
           id="path2464"
           inkscape:connector-curvature="0" />
        <path
           style="font-size:144px;font-style:normal;font-variant:normal;font-weight:normal;font-stretch:normal;text-align:center;line-height:125%;writing-mode:lr-tb;text-anchor:middle;fill:#000000;fill-opacity:1;stroke:none;font-family:Georgia;-inkscape-font-specification:Georgia"
           d="m 579.75716,216.47932 c -6e-5,2.39068 -0.58599,4.51178 -1.75781,6.36328 -1.17193,1.85162 -2.97662,2.7774 -5.41406,2.77735 -2.62505,5e-5 -4.62896,-0.67964 -6.01172,-2.03907 -1.38286,-1.35932 -2.07426,-2.85932 -2.07422,-4.5 -4e-5,-1.03119 0.082,-1.96869 0.24609,-2.8125 0.16402,-0.84369 0.31637,-1.68743 0.45703,-2.53125 -2.20316,7e-5 -4.78128,0.89069 -7.73437,2.67188 -2.95316,1.78131 -5.46097,4.31255 -7.52344,7.59375 l 0,40.35937 c -3e-5,1.64064 0.31638,2.97658 0.94922,4.00782 0.63278,1.03125 1.62888,1.80469 2.98828,2.32031 1.17184,0.46875 2.68356,0.82032 4.53516,1.05469 1.85152,0.23438 3.45699,0.39844 4.81641,0.49218 l 0,4.64063 -36.5625,0 0,-4.64063 c 1.07811,-0.0937 2.19139,-0.18749 3.33984,-0.28125 1.14843,-0.0937 2.14452,-0.28124 2.98828,-0.5625 1.31249,-0.42187 2.28514,-1.16015 2.91797,-2.21484 0.6328,-1.05468 0.9492,-2.42577 0.94922,-4.11328 l 0,-42.82031 c -2e-5,-1.45307 -0.33986,-2.88276 -1.01953,-4.28907 -0.6797,-1.40619 -1.62892,-2.53119 -2.84766,-3.375 -0.89064,-0.56243 -1.94532,-0.97259 -3.16406,-1.23047 -1.21876,-0.25774 -2.53126,-0.43353 -3.9375,-0.52734 l 0,-4.57031 23.0625,-1.54688 0.98437,0.98438 0,9.77344 0.35157,0 c 2.90621,-3.79682 6.14059,-6.67963 9.70312,-8.64844 3.56246,-1.96868 6.82027,-2.95306 9.77344,-2.95313 2.95307,7e-5 5.35541,0.96101 7.20703,2.88282 1.8515,1.92194 2.77728,4.50006 2.77734,7.73437 l 0,0 z"
           id="path2460"
           inkscape:connector-curvature="0" />
        <path
           style="font-size:144px;font-style:normal;font-variant:normal;font-weight:normal;font-stretch:normal;text-align:center;line-height:125%;writing-mode:lr-tb;text-anchor:middle;fill:#000000;fill-opacity:1;stroke:none;font-family:Georgia;-inkscape-font-specification:Georgia"
           d="m 651.21029,196.03401 -20.95313,0 c -3.6563,5.29687 -7.57036,10.96874 -11.74219,17.01563 -4.17191,6.04685 -8.50784,11.92966 -13.00781,17.64843 l -5.76562,-5.41406 0,-16.45312 c -3e-5,-1.68751 0.30466,-3.08204 0.91406,-4.1836 0.60935,-1.10157 1.59372,-1.91016 2.95313,-2.42578 1.12496,-0.46875 2.20309,-0.82032 3.23437,-1.05469 1.03121,-0.23438 2.22653,-0.39844 3.58594,-0.49218 l 0,-4.64063 -34.03125,0 0,4.64063 c 1.07812,0.0937 2.20312,0.19921 3.375,0.3164 1.17186,0.11719 2.15624,0.29297 2.95312,0.52735 1.31249,0.42187 2.29687,1.16015 2.95313,2.21484 0.65623,1.05468 0.98436,2.42577 0.98437,4.11328 l 0,80.57813 c -10e-6,1.73428 -0.36329,3.36318 -1.08984,4.88672 -0.72658,1.52333 -1.67579,2.68349 -2.84766,3.48046 -0.98438,0.7499 -2.51954,1.24209 -4.60547,1.47657 -2.08594,0.23427 -3.76172,0.39833 -5.02734,0.49218 l 0,4.5 25.66406,1.61719 0.98438,-1.05469 0,-73.33593 c 3.65622,3.65621 7.60543,7.58199 11.84765,11.77734 4.24215,4.19526 7.81636,7.93354 10.72266,11.21484 0.37495,0.42182 0.78511,0.9726 1.23047,1.65235 0.44526,0.67963 0.66792,1.23041 0.66797,1.65234 -5e-5,1.26556 -1.01958,2.20306 -3.0586,2.8125 -2.03911,0.60931 -3.99613,1.03119 -5.87109,1.26563 l 0,4.5 30.51563,0 0,-4.35938 c -3.93757,-1.17194 -7.41804,-2.63678 -10.44141,-4.39453 -3.0235,-1.75787 -5.33209,-3.3399 -6.92578,-4.74609 -1.12506,-0.93756 -2.71881,-2.46099 -4.78125,-4.57032 -2.06255,-2.10942 -4.94536,-4.87504 -8.64844,-8.29687 3.8437,-4.73441 8.16792,-10.40628 12.97266,-17.01563 4.80462,-6.60939 8.30853,-11.39064 10.51172,-14.34375 2.06243,-2.76563 3.91399,-4.57032 5.55468,-5.41406 1.64055,-0.84375 4.03118,-1.35938 7.17188,-1.54687 l 0,-4.64063 z"
           id="flowRoot2383"
           inkscape:connector-curvature="0" />
      </g>
      <g
         transform="translate(1.6939194,-13.480276)"
         id="g2544">
        <path
           style="font-size:144px;font-style:normal;font-variant:normal;font-weight:normal;font-stretch:normal;text-align:center;line-height:125%;writing-mode:lr-tb;text-anchor:middle;fill:#000000;fill-opacity:1;stroke:none;font-family:Georgia;-inkscape-font-specification:Georgia"
           d="m 79.375,205.65625 c -3.562546,7e-5 -7.171916,0.93757 -10.78125,2.8125 -3.609408,1.87506 -6.62503,4.21881 -9.0625,7.03125 l -0.5625,-0.15625 0,-7.78125 L 58,206.71875 34.375,208.25 l 0,4.5625 c 1.406246,0.0938 2.843744,0.28912 4.34375,0.59375 1.499992,0.30475 2.68749,0.75006 3.53125,1.3125 1.124988,0.79693 2.015612,1.84381 2.71875,3.15625 0.703111,1.31256 1.062486,2.68755 1.0625,4.09375 l 0,73.75 c -1.3e-5,1.59373 -0.281264,2.98434 -0.84375,4.15625 -0.562512,1.17185 -1.531262,1.99999 -2.9375,2.46875 -1.078135,0.3281 -2.296883,0.54686 -3.65625,0.6875 -1.359381,0.1406 -2.765629,0.24998 -4.21875,0.34375 l 0,4.71875 38.71875,0 0,-4.71875 c -1.359415,-0.0469 -3.070351,-0.25783 -5.15625,-0.65625 -2.085971,-0.39846 -3.687533,-0.79689 -4.8125,-1.21875 -1.359405,-0.51565 -2.375029,-1.34379 -3.03125,-2.46875 -0.656277,-1.12503 -0.968778,-2.53128 -0.96875,-4.21875 l 0,-20.8125 0.5625,0 c 1.68747,1.26562 3.859342,2.37501 6.53125,3.3125 2.671838,0.9375 6.078084,1.40626 10.25,1.40625 4.312455,0 8.406199,-0.89062 12.25,-2.625 3.84369,-1.73437 7.328057,-4.20313 10.46875,-7.4375 2.99993,-3.18749 5.4218,-7.03904 7.25,-11.5625 1.82805,-4.52341 2.74992,-9.54684 2.75,-15.03125 -8e-5,-5.57808 -0.75789,-10.53902 -2.28125,-14.875 -1.52351,-4.33589 -3.67195,-8.12495 -6.4375,-11.40625 -2.578189,-3.09369 -5.664117,-5.54682 -9.25,-7.375 -3.58599,-1.82805 -7.531298,-2.74993 -11.84375,-2.75 z m -5.0625,7.8125 c 3.609329,7e-5 6.703072,0.84381 9.28125,2.53125 2.57807,1.68756 4.656189,3.87506 6.25,6.59375 1.59369,2.67192 2.749927,5.82817 3.5,9.4375 0.74993,3.60942 1.124927,7.12504 1.125,10.59375 -7e-5,4.73441 -0.421938,9.03127 -1.3125,12.875 -0.89069,3.84377 -2.281311,7.21877 -4.15625,10.125 -1.64068,2.53126 -3.687553,4.49221 -6.125,5.875 -2.43755,1.38282 -4.968796,2.06251 -7.59375,2.0625 -2.43754,0 -4.500039,-0.36718 -6.1875,-1.09375 -1.687535,-0.72656 -3.26566,-1.67186 -4.71875,-2.84375 -1.171906,-0.98437 -2.226593,-2.14063 -3.1875,-3.5 -0.960965,-1.35937 -1.640653,-2.67188 -2.0625,-3.9375 l 0,-41 c 1.781221,-2.10932 3.874969,-3.914 6.3125,-5.4375 2.437465,-1.52338 5.406211,-2.28119 8.875,-2.28125 z"
           id="path2486"
           inkscape:connector-curvature="0" />
        <path
           style="font-size:144px;font-style:normal;font-variant:normal;font-weight:normal;font-stretch:normal;text-align:center;line-height:125%;writing-mode:lr-tb;text-anchor:middle;fill:#000000;fill-opacity:1;stroke:none;font-family:Georgia;-inkscape-font-specification:Georgia"
           d="m 139.19466,207.57031 -33.53906,0 0,4.64063 c 1.07812,0.0937 2.1914,0.18749 3.33984,0.28125 1.14843,0.0937 2.14452,0.28124 2.98829,0.5625 1.31248,0.42187 2.28514,1.16015 2.91796,2.21484 0.6328,1.05468 0.94921,2.42577 0.94922,4.11328 l 0,42.82031 c -1e-5,1.49995 -0.33986,2.87104 -1.01953,4.11329 -0.6797,1.24212 -1.62892,2.28509 -2.84765,3.1289 -0.89064,0.56244 -2.1797,1.04291 -3.86719,1.44141 -1.68751,0.39837 -3.23438,0.64447 -4.64063,0.73828 l 0,4.57031 24.46875,1.54688 0.98438,-0.98438 0,-56.53125 c -3e-5,-1.64063 0.31637,-3.00001 0.94922,-4.07812 0.63278,-1.07814 1.62887,-1.87501 2.98828,-2.39063 1.03121,-0.42188 2.03903,-0.76172 3.02343,-1.01953 0.98434,-0.25782 2.0859,-0.4336 3.30469,-0.52734 l 0,-4.64063 z"
           id="path2482"
           inkscape:connector-curvature="0" />
        <path
           style="font-size:144px;font-style:normal;font-variant:normal;font-weight:normal;font-stretch:normal;text-align:center;line-height:125%;writing-mode:lr-tb;text-anchor:middle;fill:#000000;fill-opacity:1;stroke:none;font-family:Georgia;-inkscape-font-specification:Georgia"
           d="m 130.33529,299.09375 c -3e-5,-2.67197 -0.87894,-5.004 -2.63672,-6.99609 -1.75784,-1.99228 -3.92581,-2.98837 -6.50391,-2.98829 -2.39064,-8e-5 -4.46486,0.94913 -6.22265,2.84766 -1.75783,1.89835 -2.63673,4.06631 -2.63672,6.50391 -1e-5,2.57802 0.87889,4.82802 2.63672,6.75 1.75779,1.92177 3.83201,2.8827 6.22265,2.88281 2.67185,-1.1e-4 4.86326,-0.90245 6.57422,-2.70703 1.71091,-1.80479 2.56638,-3.90245 2.56641,-6.29297 l 0,0 z"
           id="path2480"
           inkscape:connector-curvature="0" />
        <path
           style="font-size:144px;font-style:normal;font-variant:normal;font-weight:normal;font-stretch:normal;text-align:center;line-height:125%;writing-mode:lr-tb;text-anchor:middle;fill:#000000;fill-opacity:1;stroke:none;font-family:Georgia;-inkscape-font-specification:Georgia"
           d="m 163.5625,167.59375 c 4.9219,7e-5 9.35159,0.99225 13.3125,3.03125 3.96095,2.03913 7.29689,4.73444 9.96875,8.0625 2.76563,3.46881 4.85158,7.38286 6.28125,11.71875 1.4297,4.33598 2.15625,8.75004 2.15625,13.25 0,5.01565 -0.69531,9.78127 -2.03125,14.28125 -1.33593,4.50002 -3.34374,8.43753 -6.0625,11.8125 -2.71874,3.37501 -6.17965,6.03126 -10.375,8 -4.19528,1.96875 -9.07809,2.96876 -14.65625,2.96875 -6.32808,0 -11.93746,-1.65624 -16.8125,-4.9375 -4.87494,-3.28125 -8.74993,-7.68748 -11.65625,-13.21875 l 4.90625,-3.03125 c 2.81256,5.06252 5.72661,8.58596 8.75,10.53125 3.02348,1.94532 6.64067,2.90626 10.8125,2.90625 4.07816,0 7.57815,-0.77342 10.53125,-2.34375 2.95315,-1.5703 5.35941,-3.71875 7.1875,-6.4375 1.87503,-2.81249 3.22658,-6.07811 4.09375,-9.78125 0.8672,-3.7031 1.31252,-7.82809 1.3125,-12.375 l -45.90625,0 0,-4.625 c 7e-5,-4.17183 0.50787,-8.06245 1.5625,-11.625 1.05475,-3.56244 2.65632,-6.65619 4.8125,-9.28125 2.25006,-2.76556 5.20318,-4.93743 8.8125,-6.53125 3.60943,-1.59368 7.93754,-2.37494 13,-2.375 z m 0.125,5.25 c -2.95308,7e-5 -5.34371,0.70318 -7.21875,2.0625 -1.87496,1.35944 -3.35933,3.09381 -4.4375,5.25 -0.98433,2.01568 -1.71089,4.5313 -2.15625,7.53125 -0.44527,3.00005 -0.6562,5.81254 -0.65625,8.4375 l 32.0625,0 c -0.28123,-7.31245 -2.05465,-13.02337 -5.3125,-17.125 -3.25778,-4.10149 -7.35933,-6.15618 -12.28125,-6.15625 z"
           id="path2478"
           inkscape:connector-curvature="0" />
        <path
           style="font-size:144px;font-style:normal;font-variant:normal;font-weight:normal;font-stretch:normal;text-align:center;line-height:125%;writing-mode:lr-tb;text-anchor:middle;fill:#000000;fill-opacity:1;stroke:none;font-family:Georgia;-inkscape-font-specification:Georgia"
           d="m 225.51497,278.70588 c -10.03127,0 -17.88283,-3.32812 -23.55468,-9.98437 -5.67189,-6.65624 -8.50782,-15.58592 -8.50782,-26.78906 0,-4.87496 0.76172,-9.43355 2.28516,-13.67579 1.52343,-4.24213 3.73827,-8.09759 6.64453,-11.5664 2.76561,-3.32806 6.23436,-6.01165 10.40625,-8.05078 4.17185,-2.039 8.71872,-3.05853 13.64063,-3.0586 6.79683,7e-5 12.32807,1.62898 16.59375,4.88672 4.26556,3.25788 6.39837,7.69928 6.39844,13.32422 -7e-5,2.3438 -0.56257,4.41802 -1.6875,6.22266 -1.12506,1.80473 -2.97662,2.70707 -5.55469,2.70703 -2.76568,4e-5 -4.91021,-0.70308 -6.4336,-2.10938 -1.52348,-1.4062 -2.2852,-2.97651 -2.28515,-4.71093 -5e-5,-2.10933 0.2812,-4.27729 0.84375,-6.50391 0.56245,-2.2265 0.89058,-3.85541 0.98437,-4.88672 -0.84379,-1.45306 -2.0977,-2.42572 -3.76172,-2.91797 -1.6641,-0.49212 -3.45707,-0.73821 -5.3789,-0.73828 -2.25004,7e-5 -4.39457,0.48054 -6.4336,1.44141 -2.03909,0.961 -4.01955,2.73053 -5.9414,5.30859 -1.7344,2.34381 -3.14065,5.50787 -4.21875,9.49219 -1.07815,3.98442 -1.61721,8.74223 -1.61719,14.27344 -2e-5,8.71877 1.93357,15.83205 5.80078,21.33984 3.86716,5.50782 8.94137,8.26172 15.22266,8.26172 4.54683,0 8.35542,-1.10156 11.42578,-3.30469 3.07026,-2.20311 5.91791,-5.5078 8.54297,-9.91406 l 4.5,2.95312 c -3.09381,5.53126 -7.17194,9.91407 -12.23438,13.14844 -5.06255,3.23438 -10.2891,4.85156 -15.67969,4.85156 l 0,0 z"
           id="path2474"
           inkscape:connector-curvature="0" />
        <g
           id="g2539">
          <path
             id="path2472"
             d="m 286.6875,195.59375 c -4.9219,7e-5 -9.3516,0.99225 -13.3125,3.03125 -3.96095,2.03913 -7.2969,4.73444 -9.96875,8.0625 -2.76564,3.46881 -4.85158,7.38286 -6.28125,11.71875 -1.4297,4.33598 -2.15626,8.75004 -2.15625,13.25 -1e-5,5.01565 0.6953,9.78127 2.03125,14.28125 1.33593,4.50002 3.34373,8.43753 6.0625,11.8125 2.71874,3.37501 6.17965,6.03126 10.375,8 4.19528,1.96875 9.07808,2.96876 14.65625,2.96875 6.32808,0 11.93744,-1.65624 16.8125,-4.9375 4.87494,-3.28125 8.74993,-7.68748 11.65625,-13.21875 l -4.90625,-3.03125 c -2.81256,5.06252 -5.72662,8.58596 -8.75,10.53125 -3.02348,1.94532 -6.64068,2.90626 -10.8125,2.90625 -4.07817,0 -7.57817,-0.77342 -10.53125,-2.34375 -2.95315,-1.5703 -5.35941,-3.71875 -7.1875,-6.4375 -1.87502,-2.81249 -3.22659,-6.07811 -4.09375,-9.78125 -0.8672,-3.7031 -1.31253,-7.82809 -1.3125,-12.375 l 45.90625,0 0,-4.625 c -6e-5,-4.17183 -0.50788,-8.06245 -1.5625,-11.625 -1.05475,-3.56244 -2.65632,-6.65619 -4.8125,-9.28125 -2.25006,-2.76556 -5.20318,-4.93743 -8.8125,-6.53125 -3.60942,-1.59368 -7.93755,-2.37494 -13,-2.375 z m -0.125,5.25 c 2.95308,7e-5 5.3437,0.70318 7.21875,2.0625 1.87495,1.35944 3.35932,3.09381 4.4375,5.25 0.98433,2.01568 1.71088,4.5313 2.15625,7.53125 0.44527,3.00005 0.65619,5.81254 0.65625,8.4375 l -32.0625,0 c 0.28123,-7.31245 2.05465,-13.02337 5.3125,-17.125 3.25778,-4.10149 7.35933,-6.15618 12.28125,-6.15625 z"
             style="font-size:144px;font-style:normal;font-variant:normal;font-weight:normal;font-stretch:normal;text-align:center;line-height:125%;writing-mode:lr-tb;text-anchor:middle;fill:#000000;fill-opacity:1;stroke:none;font-family:Georgia;-inkscape-font-specification:Georgia"
             inkscape:connector-curvature="0" />
          <text
             sodipodi:linespacing="125%"
             id="text2515"
             y="277.35071"
             x="301.97214"
             style="font-size:144px;font-style:normal;font-variant:normal;font-weight:normal;font-stretch:normal;text-align:start;line-height:125%;writing-mode:lr-tb;text-anchor:start;fill:#000000;fill-opacity:1;stroke:none;font-family:Georgia;-inkscape-font-specification:Georgia"
             xml:space="preserve"><tspan
               y="277.35071"
               x="301.97214"
               id="tspan2517"
               sodipodi:role="line">~</tspan></text>
        </g>
      </g>
    </g>
  </g>
</svg>
